<svg width="42" height="42" viewBox="0 0 42 42" fill="none" xmlns="http://www.w3.org/2000/svg">
<path d="M27.6154 10.1944V11.1944H28.6154H29.9667C30.9007 11.1944 31.6691 11.9628 31.6691 12.8968V31.8141C31.6691 32.7482 30.9007 33.5166 29.9667 33.5166H11.0494C10.1052 33.5166 9.34711 32.7516 9.34692 31.8144C9.34692 31.8143 9.34692 31.8142 9.34692 31.8141L9.36044 12.8976V12.8968C9.36044 11.9529 10.1116 11.1944 11.0494 11.1944H12.4006H13.4006V10.1944V8.49191H14.1031V10.1944V11.1944H15.1031H25.913H26.913V10.1944V8.49191H27.6154V10.1944ZM29.9667 32.8141H30.9667V31.8141V18.3018V17.3018H29.9667H11.0494H10.0494V18.3018V31.8141V32.8141H11.0494H29.9667ZM14.7519 22.7067V22.0042H15.4543V22.7067H14.7519ZM20.8593 22.7067H20.1568V22.0042H20.8593V22.7067ZM26.2642 22.7067H25.5617V22.0042H26.2642V22.7067ZM14.7519 28.1116V27.4092H15.4543V28.1116H14.7519ZM20.8593 28.1116H20.1568V27.4092H20.8593V28.1116ZM26.2642 28.1116H25.5617V27.4092H26.2642V28.1116Z" fill="black" stroke="black" stroke-width="2"/>
</svg>
