<svg width="42" height="42" viewBox="0 0 42 42" fill="none" xmlns="http://www.w3.org/2000/svg">
<path d="M9.7384 16.0806L9.73968 16.0781C9.8649 15.8294 10.029 15.6379 10.2405 15.4843L10.247 15.4796L10.2535 15.4748L20.0558 8.19303L20.0558 8.19306L20.0649 8.18623C20.3691 7.95663 20.7035 7.84164 21.1218 7.84164C21.5401 7.84164 21.8744 7.95663 22.1787 8.18623L22.1787 8.18627L22.1878 8.19303L31.9901 15.4748L31.9965 15.4796L32.0031 15.4843C32.2148 15.6381 32.3798 15.83 32.5061 16.0793C32.6314 16.3285 32.6916 16.5825 32.6916 16.8597V31.4232C32.6916 31.9077 32.5355 32.2879 32.1767 32.6442C31.8167 32.9997 31.4262 33.1595 30.9241 33.1595H11.3194C10.8169 33.1595 10.4271 32.9994 10.0682 32.6439C9.7081 32.2872 9.552 31.9071 9.552 31.4232V16.8597C9.552 16.5833 9.61234 16.3297 9.7384 16.0806Z" fill="black" stroke="black" stroke-width="3"/>
</svg>
