<svg width="42" height="42" viewBox="0 0 42 42" fill="none" xmlns="http://www.w3.org/2000/svg">
<path d="M21.5259 20.526C19.9987 20.526 18.7329 20.0029 17.67 18.94C16.6071 17.8771 16.084 16.6113 16.084 15.0841C16.084 13.5569 16.6071 12.2911 17.67 11.2282C18.7329 10.1653 19.9987 9.64219 21.5259 9.64219C23.0531 9.64219 24.3189 10.1653 25.3818 11.2282C26.4447 12.2911 26.9678 13.5569 26.9678 15.0841C26.9678 16.6113 26.4447 17.8771 25.3818 18.94C24.3189 20.0029 23.0531 20.526 21.5259 20.526ZM9.64209 33.4098V30.3299C9.64209 29.7444 9.77977 29.1881 10.0638 28.6484C10.3387 28.1262 10.7143 27.7251 11.2002 27.4275C12.73 26.51 14.3514 25.8227 16.067 25.3641C17.7843 24.905 19.6028 24.6733 21.5259 24.6733C23.449 24.6733 25.2675 24.905 26.9848 25.3641C28.7004 25.8227 30.3218 26.51 31.8516 27.4275C32.3375 27.7251 32.7131 28.1262 32.988 28.6484C33.272 29.1881 33.4097 29.7444 33.4097 30.3299V33.4098H9.64209Z" stroke="black" stroke-width="2"/>
</svg>
